# xmcd
#
# Track frame offsets:
#  150
#  16925
#  36267
#  59997
#
# Disc length: 1022 seconds
#
# Revision: 0
# Processed by: cddbd v1.5.1PL2 Copyright (c) Steve Scherf et al.
# Submitted via: Collectorz.com_Music_Collector 6.9
#
DISCID=3303fc04
DTITLE=Katatonia - My Twin
DYEAR=2006
DGENRE=
TTITLE0=My Twin (Single Edit Version)
TTITLE1=My Twin (Opium Dub Version)
TTITLE2=Displaced
TTITLE3=Dissolving Bonds
EXTD=
EXTT0=
EXTT1=
EXTT2=
EXTT3=
PLAYORDER=
